<svg xmlns="http://www.w3.org/2000/svg" viewBox="-1 -1 18 15" width="360" height="300" shape-rendering="crispEdges"><title>Hive agent</title><g class="wings" opacity=".75"><rect x="0" y="2" width="2" height="1" fill="#F4F4F2"></rect><rect x="0" y="3" width="3" height="2" fill="#F4F4F2"></rect><rect x="1" y="5" width="2" height="1" fill="#F4F4F2"></rect><rect x="14" y="2" width="2" height="1" fill="#F4F4F2"></rect><rect x="13" y="3" width="3" height="2" fill="#F4F4F2"></rect><rect x="13" y="5" width="2" height="1" fill="#F4F4F2"></rect></g><rect x="4" y="1" width="1" height="1" fill="#9B9BA1"></rect><rect x="5" y="2" width="1" height="1" fill="#9B9BA1"></rect><rect x="11" y="1" width="1" height="1" fill="#9B9BA1"></rect><rect x="10" y="2" width="1" height="1" fill="#9B9BA1"></rect><g class="tipL"><rect x="3" y="0" width="1" height="1" fill="#F5B942"></rect></g><g class="tipR"><rect x="12" y="0" width="1" height="1" fill="#F5B942"></rect></g><rect x="4" y="3" width="8" height="1" fill="#F5B942"></rect><rect x="3" y="4" width="10" height="6" fill="#F5B942"></rect><rect x="4" y="10" width="8" height="1" fill="#F5B942"></rect><rect x="4" y="8" width="8" height="1" fill="#0B0B0C"></rect><rect x="5" y="10" width="6" height="1" fill="#0B0B0C"></rect><g class="legs"><rect x="4" y="11" width="1" height="2" fill="#F5B942"></rect><rect x="6" y="11" width="1" height="2" fill="#F5B942"></rect><rect x="9" y="11" width="1" height="2" fill="#F5B942"></rect><rect x="11" y="11" width="1" height="2" fill="#F5B942"></rect></g><g class="armL"><rect x="1" y="9" width="2" height="1" fill="#F5B942"></rect></g><g class="armR"><rect x="13" y="9" width="2" height="1" fill="#F5B942"></rect></g><g class="eyes"><g class="eo"><rect x="5" y="5" width="1" height="2" fill="#0B0B0C"></rect><rect x="10" y="5" width="1" height="2" fill="#0B0B0C"></rect></g><g class="ec" opacity="0"><rect x="5" y="6" width="1" height="1" fill="#0B0B0C"></rect><rect x="10" y="6" width="1" height="1" fill="#0B0B0C"></rect></g></g></svg>