<svg xmlns="http://www.w3.org/2000/svg" viewBox="0 0 9 9" width="180" height="180" shape-rendering="crispEdges"><title>Hive icon — lock</title><rect x="3" y="0" width="3" height="1" fill="#F3F2EE"></rect><rect x="2" y="1" width="1" height="1" fill="#F3F2EE"></rect><rect x="6" y="1" width="1" height="1" fill="#F3F2EE"></rect><rect x="2" y="2" width="1" height="1" fill="#F3F2EE"></rect><rect x="6" y="2" width="1" height="1" fill="#F3F2EE"></rect><rect x="1" y="3" width="7" height="1" fill="#F3F2EE"></rect><rect x="1" y="4" width="1" height="1" fill="#F3F2EE"></rect><rect x="7" y="4" width="1" height="1" fill="#F3F2EE"></rect><rect x="1" y="5" width="1" height="1" fill="#F3F2EE"></rect><rect x="4" y="5" width="1" height="1" fill="#F5B942"></rect><rect x="7" y="5" width="1" height="1" fill="#F3F2EE"></rect><rect x="1" y="6" width="1" height="1" fill="#F3F2EE"></rect><rect x="4" y="6" width="1" height="1" fill="#F5B942"></rect><rect x="7" y="6" width="1" height="1" fill="#F3F2EE"></rect><rect x="1" y="7" width="1" height="1" fill="#F3F2EE"></rect><rect x="7" y="7" width="1" height="1" fill="#F3F2EE"></rect><rect x="1" y="8" width="7" height="1" fill="#F3F2EE"></rect></svg>